<svg width="107" height="45" viewBox="0 0 107 45" fill="none" xmlns="http://www.w3.org/2000/svg">
<g clip-path="url(#clip0_9_2301)">
<g clip-path="url(#clip1_9_2301)">
<path d="M104.559 27.4888L79.5078 2.43621C77.9475 0.876335 75.8316 2.98955e-05 73.6253 0L63.9154 0V21.42L44.93 2.43621C43.3697 0.876335 41.2538 2.98955e-05 39.0475 0L26.6751 0V23.0707H18.8357C13.8401 23.0707 9.04921 25.0552 5.51684 28.5876C1.98447 32.1199 0 36.9109 0 41.9064L0 45.2479H28.5505V28.3042L43.0596 42.8116C44.6199 44.3715 46.7358 45.2478 48.9421 45.2479H66.1104V28.6221L80.2999 42.8116C81.8602 44.3715 83.9762 45.2478 86.1824 45.2479H107V33.3714C106.999 32.2786 106.783 31.1966 106.365 30.1873C105.946 29.1779 105.332 28.261 104.559 27.4888Z" fill="#1F5BFF"/>
</g>
</g>
<defs>
<clipPath id="clip0_9_2301">
<rect width="107" height="45" fill="white"/>
</clipPath>
<clipPath id="clip1_9_2301">
<rect width="107" height="45.2628" fill="white"/>
</clipPath>
</defs>
</svg>
